<?xml version="1.0" encoding="utf-8"?>
<!-- Generator: Adobe Illustrator 19.0.0, SVG Export Plug-In . SVG Version: 6.00 Build 0)  -->
<svg version="1.2" baseProfile="tiny" id="Capa_1" xmlns="http://www.w3.org/2000/svg" xmlns:xlink="http://www.w3.org/1999/xlink"
	 x="0px" y="0px" viewBox="198.4 403 199.6 37.7" xml:space="preserve">
<path id="XMLID_69_" fill="#FFFFFF" d="M231.7,403.4c0.2-0.3,0-0.5-0.4-0.3c-0.2,0.2-0.4,0.2-0.6,0.1c-0.1-0.1-0.3-0.3-0.5-0.2
	c-0.2,0.1-0.1,0.3-0.1,0.5c0,0.1,0,0.2,0.1,0.3c0.1,0.1,0.1,0.1,0.1,0.2c0.3,0.5,0.3,0.6-0.3,0.9c-0.2-0.1-0.4-0.2-0.6,0
	c-0.1,0.3-0.1,0.5,0.2,0.7c0.1,0.2,0.1,0.4,0.3,0.6c0,0.2,0.1,0.5-0.2,0.5s-0.4-0.1-0.4-0.4c0,0,0-0.1-0.1-0.1l0,0
	c-0.1-0.3-0.2-0.3-0.4-0.1c-0.1,0-0.1,0.1-0.1,0.2c0.1,0.4,0.2,0.7,0.3,1.1c-0.1,0.2-0.2,0.4-0.3,0.6c-0.2,0.1-0.3,0.1-0.5,0.1
	c-0.2,0.1-0.4,0.1-0.4,0.4c0.1,0,0.1,0.1,0.2,0.1l0,0c0.4,0.4,0.4,0.6-0.2,0.7c-0.1,0-0.2,0-0.3,0.1c-0.2,0.1-0.2,0.3,0,0.4v0.1l0,0
	c0.3,0.2,0.2,0.3,0,0.5l-0.1,0.1c0,0-0.1,0-0.1,0.1c-0.1,0.1-0.3,0.1-0.4,0.3c-0.1,0.1-0.2,0.2-0.3,0.2c-0.3,0.1-0.5,0.3-0.3,0.7
	l0.1,0.1c0,0.1,0.1,0.2,0.1,0.4l-0.1,0.1c-0.2,0.1-0.3,0.3-0.3,0.6l0,0c0,0,0,0,0,0.1l-0.1,0.1c-0.1,0.2-0.2,0.5-0.2,0.7
	c-0.1,0.4-0.3,0.7-0.8,0.7c-0.2,0-0.3,0.1-0.3,0.4c0,0.2,0.1,0.4,0.1,0.6c0,0.1-0.1,0.1-0.1,0.2c-0.1,0.2-0.2,0.3-0.4,0.5
	c-0.2,0.1-0.4,0.2-0.5,0.5c0,0.2-0.2,0.3-0.3,0.4c-0.1,0.3-0.4,0.4-0.5,0.7c-0.3,0.3-0.7,0.7-0.5,1.2c-0.1,0.4-0.4,0.5-0.6,0.8
	c0,0.1,0,0.2,0,0.2c0.2,0.3,0.1,0.5-0.2,0.7c-0.2,0.2-0.4,0.5-0.5,0.8c0,0.1,0,0.2,0,0.3c0,0,0,0.1,0.1,0.1
	c-0.1,0.2-0.3,0.4-0.5,0.5h-0.1c-0.2,0.5-0.4,0.9-0.9,1v0.1l0,0c0,0.1-0.1,0.1-0.1,0.2l0,0h-0.1c-0.1,0-0.1,0.1-0.1,0.2l0,0l0,0
	c-0.3,0.4-0.2,1.1-0.9,1.3v0.1c0,0.6-0.4,0.5-0.7,0.4c-0.1,0.1-0.1,0.3-0.2,0.5c0.1,0.2,0.1,0.5-0.1,0.5c-0.5,0.1-0.7,0.5-0.9,0.9
	c-0.1,0.1-0.2,0.2-0.3,0.3l0,0l0,0c-0.1,0.1-0.1,0.2-0.1,0.3c0.1,0.5-0.1,0.9-0.5,1.2c-0.4,0.2-1,0.3-1.1,0.9c0,0.1-0.1,0.2-0.2,0.2
	l0,0c-0.3,0-0.6-0.3-1-0.1c-0.1,0-0.1,0.1-0.2,0.1c-0.1,0-0.1,0.1-0.2,0.1l0,0c-0.3,0.1-0.4,0.3-0.4,0.5c-0.1,0.4-0.4,0.5-0.7,0.5
	c-0.4-0.1-0.9-0.1-1.3-0.2c-0.1,0.1-0.2,0.1-0.3,0.2l0,0h-0.1c-0.3,0.2-0.5,0.4-0.8,0.5h-0.1c-0.2,0-0.3,0-0.5-0.1
	c0-0.1-0.1-0.2-0.2-0.3c-0.2-0.2-0.3-0.4-0.6-0.5l-0.1-0.1c-0.1-0.3-0.4-0.5-0.7-0.6c-0.2,0-0.4-0.1-0.6-0.3h-0.1
	c0-0.1-0.1-0.2-0.1-0.3l0,0c0,0,0,0,0-0.1c-0.1-0.3-0.1-0.7,0-1s0.1-0.6,0.1-1c0-0.1-0.1-0.3-0.2-0.3c-0.4,0-0.4-0.3-0.5-0.5
	c-0.1-0.1-0.1-0.3-0.2-0.4l-0.1-0.1c0-0.2,0-0.3,0.1-0.5c0,0,0,0,0.1,0c0,0,0,0,0.1-0.1c0.1-0.2,0-0.3-0.1-0.5l0,0
	c0-0.1,0-0.1,0-0.2c-0.1-0.2-0.4-0.3,0-0.5c0.1,0,0.3-0.1,0.3-0.3c0-0.4,0.1-0.7,0-1.1c-0.1-0.3-0.1-0.5,0.2-0.8
	c0.2-0.2,0.3-0.5,0-0.8c-0.2-0.1-0.2-0.4-0.3-0.6c-0.1-0.7,0-1.3,0.2-1.9l0.1-0.1c0-0.1,0-0.1-0.1-0.1l0,0h0.1
	c0.3-0.1,0.3-0.3,0.1-0.5c-0.4-0.5-0.4-0.5-0.1-1v-0.1c0-0.1,0-0.1,0-0.2v-0.1l0,0l0,0v-0.1c0-0.3,0.1-0.5,0.3-0.5
	c0.1,0,0.1,0,0.2,0c0.2,0,0.4-0.1,0.4-0.3c0-0.3,0.2-0.6,0.2-0.9c0.1-0.6,0.5-1.1,0.5-1.7v-0.1l0,0l0,0l0,0l0,0c0-0.1,0-0.2,0-0.3
	c-0.3-0.2-0.4-0.5-0.1-0.8c0.4-0.4,0.7-0.9,0.3-1.6l-0.1-0.1c0,0,0,0-0.1,0l0,0c-0.1-0.1-0.2-0.1-0.3-0.1c0,0,0,0,0,0.1l0,0
	c0.1-0.1,0.2-0.2,0.2-0.4l0,0c0.1,0,0.1-0.1,0.1-0.1c0-0.2,0-0.5-0.1-0.7c-0.1-0.1-0.2-0.1-0.3-0.2c-0.1,0-0.1-0.1-0.2-0.1l-0.1-0.1
	c-0.2-0.1-0.3-0.4-0.6-0.4v-0.1c-0.1-0.1-0.2-0.2-0.3-0.3c-0.6-0.2-1.2-0.3-1.6,0.4c0,0.1-0.1,0.1-0.2,0.2c-0.1,0.1-0.3,0.2-0.5,0.2
	s-0.3,0.1-0.4,0.3c-0.1,0.2-0.2,0.4-0.3,0.6c-0.1,0.1-0.2,0.2-0.2,0.3c-0.2,0.2-0.5,0.4-0.8,0.5c-0.2,0.1-0.4,0.3-0.4,0.5
	c0.1,0.4-0.1,0.7-0.2,1.1l0,0c-0.7,0.2-1.4,1.2-1.3,1.9c0,0.2,0,0.4-0.1,0.5l-0.1,0.1c-0.3,0.3-0.3,0.7-0.5,1.1
	c0,0.1-0.1,0.2-0.1,0.3l0,0l0,0c-0.1,0.1-0.2,0.1-0.3,0.2c-0.1,0.5,0.1,0.9-0.2,1.4l0,0l0,0c0,0.1,0,0.2,0,0.3l0,0
	c-0.2,0.2-0.3,0.4-0.2,0.7c0,0.2,0.1,0.4,0,0.6c-0.2,0.9-0.2,1.8-0.5,2.7c-0.1,0.2,0,0.3,0.1,0.5c0.4,0.4,0.3,0.7,0.1,1.1l0,0l0,0
	l0,0l0,0l0,0v0.1c-0.1,0.3,0,0.7-0.3,0.9c-0.2,0.2-0.2,0.5-0.2,0.7s0,0.3,0,0.5s0,0.3,0.1,0.5l0,0c0.1,0.5,0.2,1,0.2,1.5
	c0,0.3,0,0.5,0,0.8c0,0.1,0,0.1,0.1,0.2v0.1c0.4,0.4,0.7,0.8,0.6,1.4c0.1,0.2,0.1,0.3,0.2,0.5c0.4,0.5,0.7,1,0.7,1.6
	c0,0.1,0,0.2,0,0.4c0,0.1,0,0.2,0,0.3c-0.1,0.5,0.1,0.9,0.7,1.2c0.2,0.1,0.3,0.2,0.2,0.4c-0.1,0.4,0,0.7,0.1,1l0.1,0.1
	c0.1,0.1,0.2,0.3,0.3,0.4l0.1,0.1l0,0c0.1,0.4,0.5,0.4,0.8,0.7c0.3,0.1,0.7,0.2,1,0.4c0,0.1,0.1,0.1,0.1,0.2
	c0.4,0.2,0.6,0.6,0.9,0.8c0.3,0.2,0.5-0.2,0.7-0.2c0,0.1,0.1,0.2,0.1,0.3c0,0.1,0,0.2,0.1,0.2c0,0,0,0,0,0.1l0.1,0.1l0,0
	c0,0.1,0,0.1,0,0.1c0.2,0.2,0.5,0.3,0.8,0.5c0.7,0.4,1.5,0.7,2.4,0.4c0.2-0.1,0.4,0,0.6,0.1c0.2,0.1,0.5,0.1,0.7,0.1
	c0.5,0,0.9,0,1.4,0.2c0.3,0.1,0.6,0.1,0.8-0.2c0.2-0.3,0.4-0.3,0.7-0.3s0.5-0.1,0.7-0.2c0.3-0.2,0.6-0.3,0.9-0.5
	c0.3-0.1,0.6-0.4,0.9-0.3c0.4,0.1,0.8,0,1.3,0c0.2-0.1,0.3-0.2,0.4-0.4c0.1-0.2,0.3-0.4,0.5-0.5c0.3-0.1,0.5-0.3,0.8-0.5
	c0.2-0.4,0.3-0.8,0.8-0.9c0.2,0,0.2-0.2,0.3-0.3c0.2-0.3,0.1-0.6,0.4-0.8c0.1,0,0.1-0.1,0.1-0.2l0,0c0.3-0.3,0.5-0.5,0.9-0.7
	s0.7-0.5,0.8-1c0.2-0.5,0.5-1,0.9-1.3c0,0,0,0,0.1,0c0.3-0.2,0.4-0.5,0.4-0.8c0-0.6,0.3-1.2,0.8-1.4c0.6-0.4,0.8-1,1.2-1.5
	c0.1-0.2,0.2-0.4,0.2-0.7h0.1c0-0.1,0-0.1,0.1-0.2c0.1-0.2,0.2-0.4,0.3-0.4c0.5-0.2,0.5-0.6,0.5-1c0-0.2,0-0.3,0-0.5
	c0.1-0.2,0.1-0.5,0.1-0.7c0.1-0.2,0.1-0.4,0.3-0.5s0.3-0.2,0.5-0.3l0.1-0.1c0.2-0.3,0.4-0.7,0.3-1.1c-0.1-0.2-0.1-0.3,0-0.5
	c0-0.1,0-0.2,0.1-0.3l0,0l0.1-0.1c0.1-0.5,0.1-1,0.4-1.5c0.2-0.4,0.6-0.4,0.9-0.5c0.1-0.1,0.2-0.3,0.1-0.4v-0.1
	c-0.3-0.5-0.3-0.5,0.2-0.8c0.1-0.1,0.3-0.2,0.2-0.4l0,0c0.1-0.1,0.1-0.2,0.1-0.3c0,0,0.1,0,0.1-0.1c0.1-0.2,0.1-0.4,0.2-0.5
	c0-0.2,0.3-0.3,0-0.5h-0.1l0,0v-0.1c-0.1-0.6,0.1-1,0.3-1.6l0,0c0,0,0,0,0.1,0c0.2-0.5,0.5-1,0.3-1.6c0-0.1,0-0.2,0.1-0.3
	c0.2-0.2,0.3-0.4,0.4-0.7c-0.1-0.2,0.1-0.3,0.1-0.5c0.1-0.1,0.2-0.3,0.1-0.5c-0.1-0.3-0.2-0.6-0.2-0.9l0,0c0-0.4-0.1-0.8,0.1-1.2
	l0,0l0,0c0.2-0.1,0.4-0.2,0.4-0.4l0,0l0,0c0.2-0.6,0.1-1.3,0.5-1.8c0.3-0.6,0.1-1.1-0.2-1.6c-0.1-0.2-0.2-0.4-0.1-0.6
	C231.6,404.7,231.4,404,231.7,403.4z M228.6,409.9L228.6,409.9L228.6,409.9L228.6,409.9L228.6,409.9z M216.6,436.4L216.6,436.4
	L216.6,436.4L216.6,436.4z M230.4,412.5L230.4,412.5L230.4,412.5L230.4,412.5z M204.2,438.5L204.2,438.5
	C204.2,438.5,204.2,438.6,204.2,438.5L204.2,438.5L204.2,438.5C204.2,438.6,204.2,438.5,204.2,438.5z"/>
<g id="XMLID_15_">
	<path id="XMLID_2_" fill="#FFFFFF" d="M235.6,418.1h11.9v3.8h-7.3v3.3h7v3.7h-7.1v7h-4.5L235.6,418.1L235.6,418.1z"/>
	<path id="XMLID_3_" fill="#FFFFFF" d="M248.3,432.3V423h4.2v7.5c0,0.8,0.3,1.9,1.6,1.9c0.5,0,0.8-0.2,1.3-0.4
		c0.3-0.2,0.6-0.4,0.9-0.6V423h4.3v12.8h-4v-1.4c-0.6,0.5-1,0.8-1.6,1c-0.6,0.3-1.5,0.8-2.7,0.8
		C249.6,436.3,248.3,434.7,248.3,432.3z"/>
	<path id="XMLID_4_" fill="#FFFFFF" d="M274.4,426.6v9.2h-4.3v-7.7c0-0.4,0.2-1.7-1.1-1.8c-0.4,0-1,0.2-1.5,0.5
		c-0.4,0.2-0.7,0.5-1,0.8v8.2h-4.1V423h4.1v1.3c0.5-0.5,1-0.7,1.5-1.1c0.6-0.4,1.5-0.8,2.8-0.8C272.9,422.6,274.4,424,274.4,426.6z"
		/>
	<path id="XMLID_5_" fill="#FFFFFF" d="M283.6,435.8c-0.8,0.3-1.4,0.5-2.2,0.6c-3.4,0.1-5.7-3.1-5.7-6.6s2-7.3,6.1-7.3
		c0.6,0,1,0.1,1.6,0.2c0.5,0.1,0.9,0.3,1.4,0.5v-6.5h4.1v19.2h-4V435C284.5,435.3,284.1,435.6,283.6,435.8z M284.7,431.8v-5.4
		c-0.3-0.1-0.5-0.2-0.8-0.4c-0.4-0.1-0.7-0.2-1.1-0.2c-2,0-3,1.8-3,3.5c0,1.6,0.7,3.3,2.5,3.4c0.7,0,0.8-0.1,1.3-0.3
		C284.1,432.1,284.3,432,284.7,431.8z"/>
	<path id="XMLID_6_" fill="#FFFFFF" d="M292.2,427.3l-1.6-2.6c0.6-0.4,1.1-0.7,1.8-1c1.6-0.8,2.7-1.2,4.5-1.2c2.7,0,4.1,1.5,4.1,3.5
		v5.7c0,0.6,0.1,1.3,0.3,1.5c0.2,0.2,0.6,0.1,0.8,0l0.5,2.4c-0.5,0.2-0.8,0.4-1.3,0.5c-0.7,0.2-1.3,0.4-1.9,0.4
		c-1.3,0-1.7-0.6-2.2-1.6c-0.4,0.3-0.6,0.6-1.1,0.8c-0.9,0.5-1.8,0.7-2.6,0.7c-2.1,0-3.8-1.4-3.8-3.9c0-2.2,1.1-3.4,3.8-4.2
		c1.3-0.3,3.1-0.6,3.5-0.6c0.1-0.4,0-1.4-0.6-1.7c-0.4-0.2-1.7-0.2-2.6,0.2C293.3,426.6,292.8,426.8,292.2,427.3z M295.3,430.5
		c-0.7,0.2-1.5,0.9-1.5,1.6c0,0.9,0.8,1.4,1.6,1.4c0.7,0,1.4-0.5,1.6-0.8v-2.4C296.4,430.1,296,430.3,295.3,430.5z"/>
	<path id="XMLID_7_" fill="#FFFFFF" d="M310,426c-1.9,0-3.5,1.4-3.5,3.5s1.5,3.3,3.2,3.3c0.9,0,1.8-0.4,2.3-0.7l1.5,2.9
		c-0.6,0.3-1,0.6-1.7,0.8c-1.1,0.4-1.9,0.6-3.2,0.6c-3.6,0-6.3-2.5-6.4-7c0-4,2.9-6.9,6.8-7c1.1,0,1.9,0.1,2.9,0.5
		c0.5,0.1,0.9,0.3,1.4,0.6l-1.3,2.9C311.6,426.3,310.8,426.1,310,426z"/>
	<path id="XMLID_8_" fill="#FFFFFF" d="M314.1,417.2h4.3v3.8h-4.3V417.2z M314.1,423h4.2v12.8h-4.2V423z"/>
	<path id="XMLID_9_" fill="#FFFFFF" d="M333.5,429.4c0,3.9-2.6,7.2-7.1,7.1c-4.4,0-7-3.2-7-7s2.6-7,6.9-7
		C330.9,422.5,333.4,425.5,333.5,429.4z M326.3,433.1c2.1,0,2.8-1.8,2.8-3.6c0-1.7-0.6-3.5-2.7-3.4c-2,0-2.6,1.8-2.6,3.5
		C323.7,431.2,324.5,433.1,326.3,433.1z M324.3,419.7l4.5-3l2,2.3l-5.1,2.1L324.3,419.7z"/>
	<path id="XMLID_10_" fill="#FFFFFF" d="M346.5,426.6v9.2h-4.3v-7.7c0-0.4,0.2-1.7-1.1-1.8c-0.4,0-1,0.2-1.5,0.5
		c-0.4,0.2-0.7,0.5-1,0.8v8.2h-4.1V423h4.1v1.3c0.5-0.5,1-0.7,1.5-1.1c0.6-0.4,1.5-0.8,2.8-0.8C345,422.6,346.5,424,346.5,426.6z"/>
	<path id="XMLID_11_" fill="#FFFFFF" d="M354.8,418.1h4.5v11c0,1.7,0.5,3.5,2.7,3.5s2.8-1.7,2.8-3.3v-11.2h4.3v11.2c0,4-1.8,7-7.1,7
		c-5.7,0-7.2-3.3-7.2-7.2L354.8,418.1L354.8,418.1z"/>
	<path id="XMLID_12_" fill="#FFFFFF" d="M382.9,426.6v9.2h-4.3v-7.7c0-0.4,0.2-1.7-1.1-1.8c-0.4,0-1,0.2-1.5,0.5
		c-0.4,0.2-0.7,0.5-1,0.8v8.2h-4V423h4.1v1.3c0.5-0.5,1-0.7,1.5-1.1c0.6-0.4,1.5-0.8,2.8-0.8C381.4,422.6,382.9,424,382.9,426.6z"/>
	<path id="XMLID_13_" fill="#FFFFFF" d="M398,429.4c0,3.9-2.6,7.2-7.1,7.1c-4.4,0-7-3.2-7-7s2.6-7,6.9-7
		C395.4,422.5,398,425.5,398,429.4z M390.9,433.1c2.1,0,2.8-1.8,2.8-3.6c0-1.7-0.6-3.5-2.7-3.4c-2,0-2.6,1.8-2.6,3.5
		C388.3,431.2,389,433.1,390.9,433.1z"/>
</g>
</svg>
