<?xml version="1.0" encoding="utf-8"?>
<!-- Generator: Adobe Illustrator 19.0.0, SVG Export Plug-In . SVG Version: 6.00 Build 0)  -->
<svg version="1.2" baseProfile="tiny" id="Capa_1" xmlns="http://www.w3.org/2000/svg" xmlns:xlink="http://www.w3.org/1999/xlink"
	 x="0px" y="0px" viewBox="0 0 1604.9 985.4" xml:space="preserve">
<g id="UNI_-_Líder_en_Ciencia_y_Tecnología">
	<path id="Énfasis" fill="#FFFFFF" d="M0,970c4.5-4.9,10.4-6.5,16.6-6.7c28.3-1.2,56.6-2.7,84.9-3.2c43.3-0.7,86.6-0.9,129.9-0.7
		c26.5,0.1,52.9,1.3,79.4,2c3.9,0.1,7.8,0.7,9.9,0.9c-30.6,0.6-63.1,0.6-95.5,1.9c-45.2,1.9-90.4,4.5-135.6,7.5
		c-23.2,1.5-46.3,4.6-69.5,6.8c-7.3,0.7-14.2-0.5-20-5.6C0,972,0,971,0,970z"/>
	<g>
		<path fill="#FFFFFF" d="M107.2,885.2l2.5,2.5c-4.3,5.4-8.1,9.4-11.4,11.9c-3.2,2.5-5.6,3.7-7.2,3.7c-1.3,0-1.9-1.1-1.9-3.4
			c0-5.7,3.7-14.4,11.2-26.2c6.3-10.2,9.4-15.9,9.4-17c0-1-0.4-1.5-1.3-1.5c-1.5,0-5.2,3.3-11.2,10c-6,6.7-13.3,16.1-22.1,28.2
			c-9.9,13.5-16.7,23.2-20.4,29c7,0.7,12.8,1.6,17.3,2.7c4.5,1.1,11.1,2.8,19.7,5.3c8.6,2.4,14.9,3.9,19,4.3
			c-5,5.7-8.4,9.5-10.3,11.5c-1.9,2-3.3,3.3-4.3,3.7c-1.6,0.7-3.9,0.7-7.1,0.1c-3.1-0.6-8.1-1.8-14.8-3.5c-6.8-1.7-13.1-3.2-19-4.4
			c-5.9-1.2-11.3-1.7-16.1-1.7c-2.7,0-5.1,0.3-7.1,1s-4.7,1.7-8.2,3.1c-3.5,1.5-6,2.2-7.4,2.2c-2.1,0-3.1-0.8-3.1-2.5
			c0-1,0.3-2,1-3.3c1.7-2.8,3.4-5.5,5.1-8c1.6-2.5,3.4-4.5,5.2-5.9c1.8-1.4,4.5-2.5,8-3.3c3.5-0.8,8.1-1.2,13.8-1.3
			c8.6-13.2,16.6-24.9,24.1-35.1c7.4-10.2,14.2-18.8,20.3-25.9c6.1-7,11.5-12.3,16-16c4.6-3.6,8.2-5.4,10.9-5.4
			c1.9,0,3.4,0.5,4.4,1.6c1.1,1.1,1.6,2.5,1.6,4.4C124,852.1,118.4,865.3,107.2,885.2z"/>
		<path fill="#FFFFFF" d="M157.6,920.3v5.8c-5.1,6.6-9.9,11.6-14.3,14.9c-4.4,3.4-8.2,5-11.3,5c-4.3,0-7.6-2.3-9.7-6.8
			c-2.1-4.5-3.2-9.5-3.2-14.9c0-2.1,0.2-4,0.6-5.9c0.4-1.9,0.9-3.4,1.5-4.6c0.6-1.2,1.7-3.1,3.2-5.7c7.5-11.7,14.4-17.5,20.6-17.5
			c3.2,0,4.8,1.2,4.8,3.7c0,1.7-1,4.3-3.1,7.9c-2.1,3.6-4,6.2-5.6,7.7c-4.6,4.4-7.6,7.5-9,9.3c-1.4,1.7-2.1,3.7-2.1,5.9
			c0,1.9,0.7,3.5,2.1,4.8c1.4,1.3,3.3,1.9,5.5,1.9c2.5,0,5.2-0.9,8.2-2.7C149,927.2,152.9,924.3,157.6,920.3z M148.8,873.2
			c-0.9,0-1.7-0.3-2.5-0.9c-0.7-0.6-1.1-1.3-1.1-2c0-2,2.7-6.9,8.2-15c2.4-3.3,4.4-5.5,6-6.6c1.6-1.1,3.9-1.6,6.9-1.6
			c3.9,0,5.9,1.3,5.9,4c0,1.5-1.7,4.1-5.1,7.6c-3.4,3.5-7.1,6.8-10.9,9.9C152.3,871.7,149.8,873.2,148.8,873.2z"/>
		<path fill="#FFFFFF" d="M193.1,920.5c-4.6,5.3-8.8,9.8-12.5,13.5c-3.7,3.7-6.7,6.5-9,8.3c-2.3,1.8-3.9,2.7-4.7,2.7
			c-1.4,0-2.9-1.1-4.6-3.3c-1.7-2.2-3.2-5-4.4-8.5c-1.2-3.4-1.8-6.9-1.8-10.5c0-5.1,2.5-10.3,7.4-15.5c5-5.2,10.6-9.5,17-13
			c6.3-3.4,11.1-5.2,14.3-5.2c2.6,0,5.1,1.6,7.6,4.9c4.1-8.5,7.9-16.1,11.6-22.7c3.7-6.6,6.7-11.5,9.2-14.7c2.5-3.2,4.3-4.8,5.3-4.8
			c1.2,0,2.2,0.6,3.2,1.7c1,1.1,1.5,2.4,1.5,3.8c0,2.7-2,7.5-6,14.1c-4,6.7-8,13.2-11.9,19.5c-3.9,6.3-7.3,12.6-10.1,18.7
			c-2.8,6.2-4.2,11.8-4.2,17.1c0,4.8,1.5,7.1,4.6,7.1c1.8,0,4.2-1,7-3.1c2.8-2.1,6.8-5.6,12-10.5v5.8
			c-11.4,14.7-20.2,22.1-26.4,22.1c-2.5,0-4.3-1-5.3-2.9c-1.1-1.9-1.6-4.7-1.6-8.5C191.2,931.8,191.9,926.3,193.1,920.5z M199,901.1
			c-4.7,1.6-10.2,4.1-16.6,7.6c-6.3,3.5-10.2,5.9-11.5,7.3c-1.2,1.1-2.2,3-3.1,5.9c-0.9,2.9-1.3,5.1-1.3,6.6c0,0.9,0.3,1.6,0.8,2.2
			c0.5,0.6,1.2,0.9,2,0.9c0.7,0,1.6-0.3,2.5-1c1-0.6,2.5-1.9,4.6-3.7c2.1-1.8,3.4-3,4.1-3.6c0.9-0.8,2.9-2.5,6-5.1s5.3-4.7,6.8-6.1
			c1.4-1.5,2.6-3.1,3.6-5C197.9,905.4,198.6,903.3,199,901.1z"/>
		<path fill="#FFFFFF" d="M237.3,923.2v2c0,3.1,0.8,5.5,2.3,7.3c1.5,1.7,3.5,2.6,6,2.6c2.6,0,5.3-0.6,8-1.8c2.8-1.2,5.5-2.8,8.3-4.8
			c2.7-2,6.1-4.7,10.1-8.1v4.8c-6,7.2-11.6,12.7-16.8,16.5s-10.5,5.7-15.9,5.7c-4.7,0-8.4-1.8-11.2-5.5c-2.7-3.6-4.1-8.6-4.1-15
			c0-5.5,1.3-10.6,3.9-15.1c2.6-4.5,6.8-9.3,12.7-14.3c4-3.4,8-6,12-7.8c4-1.7,7.5-2.6,10.6-2.6c2.5,0,4.5,0.6,5.9,1.7
			c1.5,1.1,2.2,2.8,2.2,5.1c0,3.3-1.2,6.6-3.7,9.9c-2.5,3.3-6.3,6.6-11.4,9.8C251,917,244.7,920.1,237.3,923.2z M238.1,918
			c4.8-1.8,8.8-4.1,12.2-6.9c3.4-2.7,5.9-5.4,7.5-7.9c1.6-2.5,2.4-4.3,2.4-5.5c0-1.2-0.6-1.8-1.7-1.8c-1,0-2.5,0.6-4.6,1.8
			c-2.1,1.2-4.3,2.8-6.5,4.8c-2.2,2-4.2,4.3-5.9,6.9C239.7,912,238.6,914.9,238.1,918z"/>
		<path fill="#FFFFFF" d="M271.2,926.4v-5.2c2.9-3.4,5-6.3,6.5-8.6c-1.7-0.6-2.9-1.3-3.7-2.1c-0.8-0.8-1.1-2.1-1.1-3.8
			c0-1.9,0.8-4.3,2.4-7.2c1.6-2.9,3.5-5.6,5.9-8.2c2.3-2.5,4.4-4.2,6.3-4.9c0.7-0.4,1.5-0.6,2.1-0.6c1.1,0,1.6,0.5,1.6,1.5
			c0,0.9-0.8,2.7-2.5,5.5c10.9-1.7,17.8-2.5,20.6-2.5c1.1,0,1.9,0.1,2.3,0.3c0.9,0.5,1.6,1.6,2.2,3.3c0.6,1.7,0.9,3.5,0.9,5.2
			c0,1.1-0.5,2.3-1.5,3.6c-1,1.3-2.7,3.2-5,5.7c-2.8,3-5.2,6.3-7.1,9.8c-1.9,3.5-2.9,6.2-2.9,8c0,2.5,1.5,3.7,4.6,3.7
			c3.2,0,8.8-3.3,16.8-9.8v5.3c-4.4,4.6-8,8.2-10.9,10.9c-2.9,2.6-5.5,4.7-7.9,6.3c-2.4,1.6-4.6,2.3-6.5,2.3c-2.2,0-4.1-1-5.5-3.1
			c-1.5-2-2.2-5-2.2-8.8c0-2.3,0.6-4.9,1.7-7.8c1.2-2.9,2.9-6.1,5.1-9.5c2.2-3.4,4.8-6.8,7.6-10.2c-1.5,0.3-3.1,0.6-5,1
			c-1.9,0.3-3.8,0.7-5.9,1.1c-2.1,0.4-3.6,0.7-4.8,0.9C282.2,915.1,277.4,921.1,271.2,926.4z"/>
		<path fill="#FFFFFF" d="M377.6,923.2v2c0,3.1,0.8,5.5,2.3,7.3c1.5,1.7,3.5,2.6,6,2.6c2.6,0,5.3-0.6,8-1.8c2.8-1.2,5.5-2.8,8.3-4.8
			c2.7-2,6.1-4.7,10.1-8.1v4.8c-6,7.2-11.6,12.7-16.8,16.5s-10.5,5.7-15.9,5.7c-4.7,0-8.4-1.8-11.2-5.5c-2.7-3.6-4.1-8.6-4.1-15
			c0-5.5,1.3-10.6,3.9-15.1c2.6-4.5,6.8-9.3,12.7-14.3c4-3.4,8-6,12-7.8c4-1.7,7.5-2.6,10.6-2.6c2.5,0,4.5,0.6,5.9,1.7
			c1.5,1.1,2.2,2.8,2.2,5.1c0,3.3-1.2,6.6-3.7,9.9c-2.5,3.3-6.3,6.6-11.4,9.8C391.4,917,385.1,920.1,377.6,923.2z M378.4,918
			c4.8-1.8,8.8-4.1,12.2-6.9c3.4-2.7,5.9-5.4,7.5-7.9c1.6-2.5,2.4-4.3,2.4-5.5c0-1.2-0.6-1.8-1.7-1.8c-1,0-2.5,0.6-4.6,1.8
			c-2.1,1.2-4.3,2.8-6.5,4.8c-2.2,2-4.2,4.3-5.9,6.9C380.1,912,379,914.9,378.4,918z"/>
		<path fill="#FFFFFF" d="M465.8,906c-9.3,10.4-13.9,17.6-13.9,21.6c0,2.3,0.9,3.4,2.8,3.4c1.5,0,3.5-0.8,6-2.4
			c2.5-1.6,6.3-4.5,11.5-8.6v5.5c-7.5,7.4-13.3,12.7-17.3,16c-4,3.3-7.3,4.9-9.8,4.9c-4.3,0-6.5-2.9-6.5-8.6c0-1.7,0.3-3.4,0.8-5
			c0.5-1.6,1.3-3.3,2.2-5.1c0.9-1.8,2.3-4.3,4.2-7.6c1.9-3.3,4.1-7,6.6-11.2c-3,1.5-6.8,4.6-11.3,9.1c-3,2.9-5.5,5.6-7.5,8.1
			s-4.3,5.4-6.6,8.6c-2.4,3.1-4.1,5.3-5.2,6.3c-1.1,1.1-2.2,1.6-3.3,1.6c-1.7,0-3.2-1.8-4.7-5.3c-1.4-3.5-2.1-7.7-2.1-12.4
			c0-2.9,0.3-5.2,1-6.8c0.7-1.6,2-4,3.9-7c3.6-5.6,6.8-9.7,9.4-12.3c2.6-2.6,5.2-3.9,7.6-3.9c1.7,0,3.1,0.3,4.1,0.9
			c1,0.6,1.5,1.5,1.5,2.7c0,0.5-0.2,1.1-0.5,1.7c-0.3,0.6-0.7,1.1-1.1,1.6c-0.4,0.5-1.2,1.4-2.5,2.8c-8.3,9.2-12.5,15.2-12.5,18
			c0,1.5,0.5,2.3,1.5,2.3c0.6,0,1.9-1,3.7-3.1c1.8-2,4.2-4.7,7.1-8c2.9-3.3,6.3-6.7,10.2-10.3c3.9-3.6,8.4-7.1,13.4-10.4
			c2.8-2,5.1-2.9,7-2.9c0.8,0,1.7,1.2,2.5,3.5c0.8,2.3,1.2,4.7,1.2,7.1C469.2,901.8,468,903.6,465.8,906z"/>
		<path fill="#FFFFFF" d="M615.9,920v5.2c-8.9,9.9-17,18-24.4,24.4c-7.4,6.4-14.7,11.4-21.8,14.8c-7.1,3.5-13.9,5.2-20.5,5.2
			c-5.7,0-10.6-1.1-14.7-3.4c-4.1-2.3-7.2-5.6-9.3-9.9c-2.1-4.4-3.1-9.5-3.1-15.5c0-4.7,0.8-9.7,2.3-14.9c1.5-5.3,3.7-10.6,6.5-15.9
			c2.9-5.4,6.4-10.9,10.5-16.6c4.1-5.7,9-11.7,14.6-18c5.8-6.5,11.5-12.1,17.2-16.8c5.7-4.7,10.8-8.4,15.4-11.1
			c4.6-2.7,8.9-4.7,12.8-6c3.9-1.3,7.2-2,9.8-2c2.6,0,4.9,0.6,6.7,1.9c1.8,1.3,3.3,3.1,4.3,5.5c1,2.4,1.5,5.2,1.5,8.4
			c0,6-2,12.6-6.1,19.9c-4.1,7.3-9.1,14.4-15.2,21.2c-6.1,6.8-11.9,12.4-17.4,16.7c-5.5,4.3-9.5,6.5-11.9,6.5
			c-1.6,0-3.2-0.6-4.6-1.9c-1.4-1.3-2.1-2.8-2.1-4.4c0-3,1.6-6.7,4.8-10.9c3.2-4.3,6.7-8.2,10.5-11.8c3.8-3.6,6-5.3,6.8-5.3
			c0.4,0,0.6,0.2,0.6,0.5c0,0.5-0.3,1.3-0.8,2.5c-0.6,1.2-0.8,1.9-0.8,2.1c0,0.4,0.2,0.6,0.5,0.6c0.9,0,3.5-2.4,7.8-7.2
			c4.3-4.8,8.2-10.1,11.8-15.9c3.6-5.8,5.3-10.5,5.3-14.2c0-1.5-0.3-2.7-1-3.5c-0.7-0.8-1.7-1.2-3-1.2c-3.7,0-9.3,3-16.8,9
			c-7.5,6-15.2,13.6-23.1,22.9c-7.9,9.3-14.5,18.8-19.8,28.7c-5.3,9.9-7.9,18.6-7.9,26.1c0,4.3,0.6,8,1.9,10.9
			c1.3,2.9,3.2,5.2,5.7,6.7c2.5,1.6,5.5,2.4,9.1,2.4c7.7,0,16.4-3,26.1-9C593.6,940.4,604.3,931.6,615.9,920z"/>
		<path fill="#FFFFFF" d="M653.1,920.3v5.8c-5.1,6.6-9.9,11.6-14.3,14.9c-4.4,3.4-8.2,5-11.3,5c-4.3,0-7.6-2.3-9.7-6.8
			c-2.1-4.5-3.2-9.5-3.2-14.9c0-2.1,0.2-4,0.6-5.9c0.4-1.9,0.9-3.4,1.5-4.6c0.6-1.2,1.7-3.1,3.2-5.7c7.5-11.7,14.4-17.5,20.6-17.5
			c3.2,0,4.8,1.2,4.8,3.7c0,1.7-1,4.3-3.1,7.9c-2.1,3.6-4,6.2-5.6,7.7c-4.6,4.4-7.6,7.5-9,9.3c-1.4,1.7-2.1,3.7-2.1,5.9
			c0,1.9,0.7,3.5,2.1,4.8c1.4,1.3,3.3,1.9,5.5,1.9c2.5,0,5.2-0.9,8.2-2.7C644.5,927.2,648.4,924.3,653.1,920.3z M647.7,884.9
			c-1.3,0-2.6-0.5-3.8-1.5c-1.2-1-1.8-2.3-1.8-3.8c0-2.3,1.1-4.9,3.3-7.8c2.2-2.9,4.5-4.3,6.9-4.3c1.6,0,2.9,0.5,4,1.5
			c1.1,1,1.6,2.4,1.6,4.2c0,2.3-1.1,4.8-3.2,7.5C652.5,883.5,650.2,884.9,647.7,884.9z"/>
		<path fill="#FFFFFF" d="M665.1,923.2v2c0,3.1,0.8,5.5,2.3,7.3c1.5,1.7,3.5,2.6,6,2.6c2.6,0,5.3-0.6,8-1.8c2.8-1.2,5.5-2.8,8.3-4.8
			c2.7-2,6.1-4.7,10.1-8.1v4.8c-6,7.2-11.6,12.7-16.8,16.5s-10.5,5.7-15.9,5.7c-4.7,0-8.4-1.8-11.2-5.5c-2.7-3.6-4.1-8.6-4.1-15
			c0-5.5,1.3-10.6,3.9-15.1c2.6-4.5,6.8-9.3,12.7-14.3c4-3.4,8-6,12-7.8c4-1.7,7.5-2.6,10.6-2.6c2.5,0,4.5,0.6,5.9,1.7
			c1.5,1.1,2.2,2.8,2.2,5.1c0,3.3-1.2,6.6-3.7,9.9c-2.5,3.3-6.3,6.6-11.4,9.8C678.8,917,672.5,920.1,665.1,923.2z M665.9,918
			c4.8-1.8,8.8-4.1,12.2-6.9c3.4-2.7,5.9-5.4,7.5-7.9c1.6-2.5,2.4-4.3,2.4-5.5c0-1.2-0.6-1.8-1.7-1.8c-1,0-2.5,0.6-4.6,1.8
			c-2.1,1.2-4.3,2.8-6.5,4.8c-2.2,2-4.2,4.3-5.9,6.9C667.5,912,666.4,914.9,665.9,918z"/>
		<path fill="#FFFFFF" d="M753.2,906c-9.3,10.4-13.9,17.6-13.9,21.6c0,2.3,0.9,3.4,2.8,3.4c1.5,0,3.5-0.8,6-2.4
			c2.5-1.6,6.3-4.5,11.5-8.6v5.5c-7.5,7.4-13.3,12.7-17.3,16c-4,3.3-7.3,4.9-9.8,4.9c-4.3,0-6.5-2.9-6.5-8.6c0-1.7,0.3-3.4,0.8-5
			c0.5-1.6,1.3-3.3,2.2-5.1c0.9-1.8,2.3-4.3,4.2-7.6c1.9-3.3,4.1-7,6.6-11.2c-3,1.5-6.8,4.6-11.3,9.1c-3,2.9-5.5,5.6-7.5,8.1
			s-4.3,5.4-6.6,8.6c-2.4,3.1-4.1,5.3-5.2,6.3c-1.1,1.1-2.2,1.6-3.3,1.6c-1.7,0-3.2-1.8-4.7-5.3c-1.4-3.5-2.1-7.7-2.1-12.4
			c0-2.9,0.3-5.2,1-6.8c0.7-1.6,2-4,3.9-7c3.6-5.6,6.8-9.7,9.4-12.3c2.6-2.6,5.2-3.9,7.6-3.9c1.7,0,3.1,0.3,4.1,0.9
			c1,0.6,1.5,1.5,1.5,2.7c0,0.5-0.2,1.1-0.5,1.7c-0.3,0.6-0.7,1.1-1.1,1.6c-0.4,0.5-1.2,1.4-2.5,2.8c-8.3,9.2-12.5,15.2-12.5,18
			c0,1.5,0.5,2.3,1.5,2.3c0.6,0,1.9-1,3.7-3.1c1.8-2,4.2-4.7,7.1-8c2.9-3.3,6.3-6.7,10.2-10.3c3.9-3.6,8.4-7.1,13.4-10.4
			c2.8-2,5.1-2.9,7-2.9c0.8,0,1.7,1.2,2.5,3.5c0.8,2.3,1.2,4.7,1.2,7.1C756.6,901.8,755.5,903.6,753.2,906z"/>
		<path fill="#FFFFFF" d="M806.8,920.5v5.3c-5.7,5.5-10.3,9.9-13.8,12.9c-3.6,3.1-6.9,5.4-10,7.1s-6.1,2.5-9.1,2.5
			c-2.9,0-5.6-1.1-8-3.4c-2.4-2.3-4.3-5.3-5.7-9c-1.4-3.7-2.1-7.7-2.1-11.8c0-3.6,0.8-6.8,2.4-9.6c1.6-2.8,4.6-6.4,9.2-10.9
			c5.4-5.3,10.4-9.4,15-12.2c4.6-2.9,8.3-4.3,10.9-4.3c1.9,0,3.5,0.7,4.8,2c1.3,1.3,2,3,2,5c0,1.7-0.9,4.1-2.6,7.2
			c-1.7,3.1-3.7,5.8-5.9,8.1c-2.2,2.3-3.9,3.4-5.2,3.4c-1.4,0-2.1-0.7-2.1-2.2c0.1-0.4,0.1-0.8,0.1-1.2c0-0.4,0-0.7,0-1.1
			c0-0.6-0.2-1-0.7-1.1c-0.4-0.1-1,0.1-1.6,0.6c-5.3,3.7-8.9,6.3-10.9,7.8c-2,1.5-3.5,3-4.6,4.6c-1.1,1.5-1.7,3.1-1.7,4.8
			c0,3.1,1,5.7,3,7.6c2,2,4.6,2.9,7.8,2.9c3.3,0,7.3-1.3,12-3.8C794.9,929.1,800.4,925.4,806.8,920.5z"/>
		<path fill="#FFFFFF" d="M844.3,920.3v5.8c-5.1,6.6-9.9,11.6-14.3,14.9c-4.4,3.4-8.2,5-11.3,5c-4.3,0-7.6-2.3-9.7-6.8
			c-2.1-4.5-3.2-9.5-3.2-14.9c0-2.1,0.2-4,0.6-5.9c0.4-1.9,0.9-3.4,1.5-4.6c0.6-1.2,1.7-3.1,3.3-5.7c7.5-11.7,14.4-17.5,20.6-17.5
			c3.2,0,4.8,1.2,4.8,3.7c0,1.7-1,4.3-3.1,7.9c-2.1,3.6-4,6.2-5.6,7.7c-4.6,4.4-7.6,7.5-9,9.3c-1.4,1.7-2.1,3.7-2.1,5.9
			c0,1.9,0.7,3.5,2.1,4.8c1.4,1.3,3.3,1.9,5.5,1.9c2.5,0,5.2-0.9,8.2-2.7C835.7,927.2,839.6,924.3,844.3,920.3z M839,884.9
			c-1.3,0-2.6-0.5-3.8-1.5c-1.2-1-1.8-2.3-1.8-3.8c0-2.3,1.1-4.9,3.3-7.8c2.2-2.9,4.5-4.3,6.9-4.3c1.6,0,2.9,0.5,4,1.5
			c1.1,1,1.6,2.4,1.6,4.2c0,2.3-1.1,4.8-3.2,7.5C843.8,883.5,841.4,884.9,839,884.9z"/>
		<path fill="#FFFFFF" d="M852.9,906.1c8-7.3,15.8-12.7,23.4-16.2c7.6-3.5,13.4-5.3,17.5-5.3c1.1,0,2.1,0.5,3.1,1.4
			c1,0.9,1.7,2,2.3,3.2c0.6,1.2,0.8,2.1,0.8,2.7c0,1-0.4,1.7-1.1,2.1c-0.7,0.5-2,1-3.9,1.6c0.4,0.8,0.8,1.9,1.4,3.2
			c0.6,1.3,1,2.4,1.3,3.2c0.3,0.8,0.5,1.5,0.5,2.2c0,1.3-1.3,3.6-3.8,7.1c-2.6,3.5-4.4,6-5.4,7.6c-1,1.6-1.5,3.6-1.5,6
			c0,3.9,1.8,5.9,5.4,5.9c3.7,0,9.5-3.5,17.4-10.4v4.8c-13.4,14.8-22.9,22.3-28.7,22.3c-2.1,0-3.5-0.7-4.4-2c-0.9-1.3-1.3-3.3-1.3-6
			c0-4.2,1.5-10.2,4.5-18.1c-7.7,8.6-13.4,14.6-17.2,18.3c-3.8,3.6-6.8,5.4-9.3,5.4c-1.2,0-2.6-1-4.4-3c-1.7-2-3.3-4.6-4.6-7.8
			c-1.3-3.2-2-6.5-2-9.9c0-2.5,0.2-4.6,0.7-6.2s1.4-3.4,2.8-5.1C847.7,911.3,849.9,909,852.9,906.1z M890.9,897.4
			c-13.7,6.3-23.5,11.6-29.4,16c-5.8,4.4-8.8,8.9-8.8,13.6c0,1.7,0.3,3.1,0.9,4.2c0.6,1.1,1.4,1.6,2.4,1.6c0.6,0,1.6-0.4,3.1-1.1
			c5.5-3.3,10.6-7.5,15.2-12.8C878.9,913.6,884.4,906.4,890.9,897.4z"/>
		<path fill="#FFFFFF" d="M991.6,923.4l-14.1,12c-6.7,5.9-11.2,8.8-13.5,8.8c-2.1,0-4.2-2.4-6.5-7.1c-2.3-4.7-3.4-8.9-3.4-12.4
			c0-3,0.5-5.6,1.4-7.6c0.9-2.1,2.5-4.8,4.8-8.1c3.2-4.5,6.3-8.3,9.3-11.4c3-3.1,5.6-5.5,7.8-7.3c2.3-1.7,3.9-2.6,4.8-2.6
			c1.4,0,2.8,0.7,4.2,2.2c1.3,1.5,2,3,2,4.6c0,1-0.7,2.6-2.2,4.8c-1.5,2.2-3.8,5-6.9,8.4c-3.1,3.4-7.5,7.5-13.1,12.2l-1.5,4.4
			c-0.4,0.8-0.6,1.6-0.6,2.2c0,1.4,0.7,2.1,2.1,2.1c1.5,0,5-1.9,10.4-5.6c5.5-3.8,11.4-8.8,17.8-15.1c2.5-2.5,4.5-4.7,6.2-6.6
			c1.6-1.9,3.1-3.7,4.4-5.3c1.3-1.7,2.4-2.9,3.3-3.8c0.9-0.8,1.7-1.3,2.3-1.3c1.3-0.2,2.3,0.4,3.1,1.7c0.7,1.3,1.1,3.1,1.1,5.6
			c0,1.4-0.6,3.2-1.9,5.3c-1.3,2.1-3.6,5.8-7.1,10.9c-3.5,5.2-7,10.5-10.4,16c-3.5,5.5-7,11.7-10.6,18.7c0.2-0.2,1.8-1.7,4.9-4.8
			c3.1-3,6.4-6.2,9.8-9.4c3.4-3.3,6.3-5.9,8.5-7.9c2.2-2,5-4.3,8.3-6.9v5.3c-7.1,7.7-13.6,14.9-19.4,21.8
			c-5.8,6.9-10.3,12.4-13.4,16.5c-3.1,4.1-5,6.5-5.5,7.2c-1.4,1.8-2.7,3.6-3.8,5.2c-1.1,1.6-2.1,2.9-2.9,3.7
			c-0.8,0.9-1.4,1.3-1.9,1.3c-1.1,0-2.1-1.1-3-3.3s-1.3-4.1-1.3-5.8c0-1.5,0.3-2.9,0.9-4C969.8,959.5,978.3,944.6,991.6,923.4z"/>
		<path fill="#FFFFFF" d="M1114.8,929.5l2.6,2c-0.7,1.5-1.3,2.8-2,3.9s-1.4,2.5-2.3,4c-0.9,1.6-1.6,2.8-2.1,3.6
			c-4,6.9-7.7,10.4-11.2,10.4c-1.5,0-2.7-0.6-3.8-1.7c-1.1-1.2-1.6-2.7-1.6-4.8c0-2.9,1-6.8,3.1-11.7c2-5,5.2-11.1,9.4-18.3
			c4.3-7.3,9.6-15.5,16-24.7c6.4-9.2,13.7-18.9,21.8-29.1c-4.6-0.7-10.2-1-16.6-1c-7.3,0-15.5,0.8-24.5,2.5
			c-9,1.6-16.9,3.5-23.5,5.7c-6.7,2.1-10,3.7-10,4.7c0,0.4,0.1,0.6,0.4,0.8c0.3,0.1,0.7,0.2,1.3,0.3c0.6,0.1,1.4,0.2,2.3,0.3
			c6.2,0.8,9.3,1.8,9.3,2.9c0,0.5-1.3,0.8-4,0.8c-2.7,0-5.9,0-9.7,0c-3,0-5.2-0.1-6.5-0.4c-1.3-0.2-2.2-0.7-2.7-1.3
			c-0.5-0.7-0.7-1.7-0.7-3.1c0-0.9,0.3-2.9,0.8-5.9c1-5.6,2.5-10.1,4.6-13.5c2.1-3.4,5.3-6.1,9.6-8.3c4.3-2.1,10.2-3.8,17.8-5.1
			c12.7-2.2,23.2-3.2,31.5-3.2c6.1,0,11,0.3,14.5,0.8c3.5,0.5,6.1,1.2,7.8,2.2c1.7,1,2.7,1.9,3.2,2.8c0.4,0.9,1,2.5,1.8,4.8l2.5,7.3
			c0.2,0.5,0.3,0.9,0.4,1.1c0.1,0.3,0.2,0.6,0.3,0.9c0.1,0.3,0.1,0.6,0.1,0.9c0,2.1-0.5,3.9-1.4,5.5c-0.9,1.6-2.6,4.1-5.1,7.4
			c-2.5,3.3-4.3,5.8-5.4,7.7C1129,902.5,1119.7,918.9,1114.8,929.5z"/>
		<path fill="#FFFFFF" d="M1153,923.2v2c0,3.1,0.8,5.5,2.3,7.3c1.5,1.7,3.5,2.6,6,2.6c2.6,0,5.3-0.6,8-1.8c2.8-1.2,5.5-2.8,8.3-4.8
			c2.7-2,6.1-4.7,10.1-8.1v4.8c-6,7.2-11.6,12.7-16.8,16.5c-5.2,3.8-10.5,5.7-15.9,5.7c-4.7,0-8.4-1.8-11.2-5.5
			c-2.7-3.6-4.1-8.6-4.1-15c0-5.5,1.3-10.6,3.9-15.1c2.6-4.5,6.8-9.3,12.7-14.3c4-3.4,8-6,12-7.8c4-1.7,7.5-2.6,10.6-2.6
			c2.5,0,4.5,0.6,5.9,1.7c1.5,1.1,2.2,2.8,2.2,5.1c0,3.3-1.2,6.6-3.7,9.9s-6.3,6.6-11.4,9.8C1166.7,917,1160.4,920.1,1153,923.2z
			 M1153.7,918c4.8-1.8,8.8-4.1,12.2-6.9c3.4-2.7,5.9-5.4,7.5-7.9c1.6-2.5,2.4-4.3,2.4-5.5c0-1.2-0.6-1.8-1.7-1.8
			c-1,0-2.5,0.6-4.6,1.8c-2.1,1.2-4.3,2.8-6.5,4.8c-2.2,2-4.2,4.3-5.9,6.9C1155.4,912,1154.3,914.9,1153.7,918z"/>
		<path fill="#FFFFFF" d="M1235.4,920.5v5.3c-5.7,5.5-10.3,9.9-13.8,12.9c-3.6,3.1-6.9,5.4-10,7.1s-6.1,2.5-9.1,2.5
			c-2.9,0-5.6-1.1-8-3.4c-2.4-2.3-4.3-5.3-5.7-9c-1.4-3.7-2.1-7.7-2.1-11.8c0-3.6,0.8-6.8,2.4-9.6c1.6-2.8,4.6-6.4,9.2-10.9
			c5.4-5.3,10.4-9.4,15-12.2c4.6-2.9,8.3-4.3,10.9-4.3c1.9,0,3.5,0.7,4.8,2c1.3,1.3,2,3,2,5c0,1.7-0.9,4.1-2.6,7.2
			c-1.7,3.1-3.7,5.8-5.9,8.1c-2.2,2.3-3.9,3.4-5.2,3.4c-1.4,0-2.1-0.7-2.1-2.2c0.1-0.4,0.1-0.8,0.1-1.2c0-0.4,0-0.7,0-1.1
			c0-0.6-0.2-1-0.7-1.1c-0.4-0.1-1,0.1-1.6,0.6c-5.3,3.7-8.9,6.3-10.9,7.8c-2,1.5-3.5,3-4.6,4.6c-1.1,1.5-1.7,3.1-1.7,4.8
			c0,3.1,1,5.7,3,7.6c2,2,4.6,2.9,7.8,2.9c3.3,0,7.3-1.3,12-3.8C1223.5,929.1,1229,925.4,1235.4,920.5z"/>
		<path fill="#FFFFFF" d="M1288.5,906c-9.3,10.4-13.9,17.6-13.9,21.6c0,2.3,0.9,3.4,2.8,3.4c1.5,0,3.5-0.8,6-2.4
			c2.5-1.6,6.3-4.5,11.5-8.6v5.5c-7.5,7.4-13.3,12.7-17.3,16c-4,3.3-7.3,4.9-9.8,4.9c-4.3,0-6.5-2.9-6.5-8.6c0-1.7,0.3-3.4,0.8-5
			c0.5-1.6,1.3-3.3,2.2-5.1c0.9-1.8,2.3-4.3,4.2-7.6c1.9-3.3,4.1-7,6.6-11.2c-3,1.5-6.8,4.6-11.3,9.1c-3,2.9-5.5,5.6-7.5,8.1
			s-4.3,5.4-6.6,8.6c-2.4,3.1-4.1,5.3-5.2,6.3c-1.1,1.1-2.2,1.6-3.3,1.6c-1.7,0-3.2-1.8-4.7-5.3c-1.4-3.5-2.1-7.7-2.1-12.4
			c0-2.9,0.3-5.2,1-6.8c0.7-1.6,2-4,3.9-7c3.6-5.6,6.8-9.7,9.4-12.3c2.6-2.6,5.2-3.9,7.6-3.9c1.7,0,3.1,0.3,4.1,0.9
			c1,0.6,1.5,1.5,1.5,2.7c0,0.5-0.2,1.1-0.5,1.7c-0.3,0.6-0.7,1.1-1.1,1.6c-0.4,0.5-1.2,1.4-2.5,2.8c-8.3,9.2-12.5,15.2-12.5,18
			c0,1.5,0.5,2.3,1.5,2.3c0.6,0,1.9-1,3.7-3.1c1.8-2,4.2-4.7,7.1-8c2.9-3.3,6.3-6.7,10.2-10.3c3.9-3.6,8.4-7.1,13.4-10.4
			c2.8-2,5.1-2.9,7-2.9c0.8,0,1.7,1.2,2.5,3.5c0.8,2.3,1.2,4.7,1.2,7.1C1291.9,901.8,1290.7,903.6,1288.5,906z"/>
		<path fill="#FFFFFF" d="M1345.3,920.1v5.3c-3.5,3.2-6.3,5.3-8.4,6.3c-2.1,1.1-5.2,1.5-9.1,1.3c-6.9,8.1-12.9,12.2-18.1,12.2
			c-3,0-5.7-1-8.1-2.9c-2.4-2-4.4-4.6-5.8-8c-1.5-3.4-2.2-7.2-2.2-11.3c0-3.4,1.1-7.1,3.4-11.3c2.2-4.1,5.2-8,8.7-11.5
			c3.6-3.6,7.4-6.4,11.5-8.6s7.8-3.3,11.3-3.3c2.5,0,4.4,0.4,5.9,1.1c1.4,0.8,2.1,1.8,2.1,3.2c0,1.1-0.6,2.3-1.8,3.6
			c2,0.4,3.4,1.1,4.1,2.1c0.7,1,1.1,2.8,1.1,5.3c0,2.5-0.6,5.7-1.8,9.6c-1.2,3.9-2.8,7.5-4.9,10.9l1.4,1.4h1.2
			c0.9,0,1.8-0.2,2.7-0.7c0.9-0.4,1.7-0.9,2.3-1.4C1341.5,923,1343,921.9,1345.3,920.1z M1329,899.3c-4.4,2.6-8.1,5-11.3,7.2
			c-3.1,2.1-5.8,4.3-7.9,6.5c-2.2,2.2-3.6,4.4-4.4,6.6c-1.3,5.9-2,9.1-2,9.6c0,3.5,2.4,5.2,7.3,5.2c2.3,0,6.1-2,11.4-5.9
			c-0.9-2.5-1.3-4.9-1.3-7.1c0-3.3,0.7-6.7,2.1-10.2C1324.2,907.8,1326.3,903.8,1329,899.3z"/>
		<path fill="#FFFFFF" d="M1383,919.4v5.9c-11,14.6-20,22-26.9,22c-3.8,0-6.7-2-8.8-6.1c-2.1-4.1-3.2-9.5-3.2-16.1
			c0-5.4,1.3-11.8,3.8-19.2c2.5-7.4,5.9-15,10.2-22.6c4.3-7.6,8.7-14.3,13.2-20c4.6-5.7,8.8-9.7,12.7-11.9c1.6-1,2.8-1.4,3.7-1.4
			c1.1,0,1.8,0.5,2.2,1.5c0.4,1,0.6,2.7,0.6,5c0,7.3-3,16.4-9,27.1c-6,10.7-14.3,21.6-25,32.8c-0.5,2.7-0.8,4.9-0.8,6.3
			c0,3.4,0.7,6.1,2.2,8.2c1.5,2.1,3.5,3.2,6.1,3.2c1.3,0,2.7-0.5,4.3-1.5c1.5-1,3.1-2.3,4.8-3.8C1374.8,927,1378.1,924,1383,919.4z
			 M1359.3,905.2c2.7-2.7,5.4-5.8,8-9.2c2.6-3.4,5-7.1,7.3-11c2.3-3.9,4.1-7.4,5.3-10.5c1.3-3.1,1.9-5.5,1.9-7.1
			c0-1.2-0.4-1.8-1.3-1.8c-0.3,0-0.9,0.3-1.8,0.9c-3.2,2.6-6.8,7.8-10.9,15.5C1363.9,889.6,1361,897.3,1359.3,905.2z"/>
		<path fill="#FFFFFF" d="M1433.3,920.1v5.3c-3.5,3.2-6.3,5.3-8.4,6.3c-2.1,1.1-5.2,1.5-9.1,1.3c-6.9,8.1-12.9,12.2-18.1,12.2
			c-3,0-5.7-1-8.1-2.9c-2.4-2-4.4-4.6-5.8-8c-1.5-3.4-2.2-7.2-2.2-11.3c0-3.4,1.1-7.1,3.4-11.3c2.2-4.1,5.2-8,8.7-11.5
			c3.6-3.6,7.4-6.4,11.5-8.6s7.8-3.3,11.3-3.3c2.5,0,4.4,0.4,5.9,1.1c1.4,0.8,2.1,1.8,2.1,3.2c0,1.1-0.6,2.3-1.8,3.6
			c2,0.4,3.4,1.1,4.1,2.1c0.7,1,1.1,2.8,1.1,5.3c0,2.5-0.6,5.7-1.8,9.6c-1.2,3.9-2.8,7.5-4.9,10.9l1.4,1.4h1.2
			c0.9,0,1.8-0.2,2.7-0.7c0.9-0.4,1.7-0.9,2.3-1.4C1429.4,923,1430.9,921.9,1433.3,920.1z M1416.9,899.3c-4.4,2.6-8.1,5-11.3,7.2
			c-3.1,2.1-5.8,4.3-7.9,6.5c-2.2,2.2-3.6,4.4-4.4,6.6c-1.3,5.9-2,9.1-2,9.6c0,3.5,2.4,5.2,7.3,5.2c2.3,0,6.1-2,11.4-5.9
			c-0.9-2.5-1.3-4.9-1.3-7.1c0-3.3,0.7-6.7,2.1-10.2C1412.2,907.8,1414.2,903.8,1416.9,899.3z"/>
		<path fill="#FFFFFF" d="M1496.1,925.6l-26.3,21.6c-7.4,12.8-14.1,22.3-20.2,28.6c-6.1,6.3-10.6,9.5-13.6,9.5c-1.6,0-2.4-1-2.4-2.9
			c0-3.8,1.9-8.7,5.8-14.6c1.5-2.3,3.3-4.6,5.3-6.8c2-2.2,3.9-4.1,5.6-5.7c1.8-1.6,4.1-3.6,7-6c2.9-2.4,4.9-4.1,5.9-5
			c5.3-10.8,9.1-19,11.4-24.7c-5,5.3-9.3,9.6-13,13c-3.7,3.4-7.1,6-10.2,7.8c-3.1,1.8-5.9,2.7-8.4,2.7c-2.7,0-5.2-2.2-7.5-6.5
			c-2.3-4.3-3.4-8.7-3.4-13.3c0-2.1,0.5-4.3,1.5-6.7c1-2.3,2.5-4.8,4.6-7.4c2.1-2.6,4.7-5.3,8-8.1c3.2-2.8,7-5.5,11.3-8.1
			c8.2-5.1,14.6-7.7,19.1-7.7c3.4,0,5.1,1.2,5.1,3.7c0,3.4-3.7,6.8-11,10.1c-4.5,2-8.9,4.5-13.4,7.8c-4.4,3.2-8,6.6-10.7,10.3
			c-2.7,3.6-4.1,6.9-4.1,9.8c0,1.4,0.3,2.6,1,3.4c0.7,0.8,1.6,1.3,2.7,1.3c1.8,0,4-0.8,6.3-2.5c2.4-1.7,5.9-4.7,10.5-9
			c2.1-2,4.9-5.1,8.4-9.5c3.5-4.4,6.4-7.7,8.7-10c2.3-2.3,4.4-3.4,6.2-3.4c1.1,0,1.9,0.3,2.6,1c0.7,0.7,1,1.6,1,2.9
			c0,2.4-1,6-2.9,10.6c-1.9,4.6-5.4,12.2-10.4,22.7l19.2-13.9V925.6z"/>
		<path fill="#FFFFFF" d="M1533.4,920.3v5.8c-5.1,6.6-9.9,11.6-14.3,14.9c-4.4,3.4-8.2,5-11.3,5c-4.3,0-7.6-2.3-9.7-6.8
			c-2.1-4.5-3.2-9.5-3.2-14.9c0-2.1,0.2-4,0.6-5.9c0.4-1.9,0.9-3.4,1.5-4.6c0.6-1.2,1.7-3.1,3.3-5.7c7.5-11.7,14.4-17.5,20.6-17.5
			c3.2,0,4.8,1.2,4.8,3.7c0,1.7-1,4.3-3.1,7.9c-2.1,3.6-4,6.2-5.6,7.7c-4.6,4.4-7.6,7.5-9,9.3c-1.4,1.7-2.1,3.7-2.1,5.9
			c0,1.9,0.7,3.5,2.1,4.8c1.4,1.3,3.3,1.9,5.5,1.9c2.5,0,5.2-0.9,8.2-2.7C1524.8,927.2,1528.7,924.3,1533.4,920.3z M1524.6,873.2
			c-0.9,0-1.7-0.3-2.5-0.9c-0.7-0.6-1.1-1.3-1.1-2c0-2,2.7-6.9,8.2-15c2.4-3.3,4.4-5.5,6-6.6c1.6-1.1,3.9-1.6,6.9-1.6
			c3.9,0,5.9,1.3,5.9,4c0,1.5-1.7,4.1-5.1,7.6c-3.4,3.5-7.1,6.8-10.9,9.9C1528.1,871.7,1525.6,873.2,1524.6,873.2z"/>
		<path fill="#FFFFFF" d="M1542,906.1c8-7.3,15.8-12.7,23.4-16.2c7.6-3.5,13.4-5.3,17.5-5.3c1.1,0,2.1,0.5,3.1,1.4
			c1,0.9,1.7,2,2.3,3.2c0.6,1.2,0.8,2.1,0.8,2.7c0,1-0.4,1.7-1.1,2.1c-0.7,0.5-2,1-3.9,1.6c0.4,0.8,0.8,1.9,1.4,3.2
			c0.6,1.3,1,2.4,1.3,3.2c0.3,0.8,0.5,1.5,0.5,2.2c0,1.3-1.3,3.6-3.8,7.1c-2.6,3.5-4.4,6-5.4,7.6c-1,1.6-1.5,3.6-1.5,6
			c0,3.9,1.8,5.9,5.4,5.9c3.7,0,9.5-3.5,17.4-10.4v4.8c-13.4,14.8-22.9,22.3-28.7,22.3c-2.1,0-3.5-0.7-4.4-2c-0.9-1.3-1.3-3.3-1.3-6
			c0-4.2,1.5-10.2,4.5-18.1c-7.7,8.6-13.4,14.6-17.2,18.3c-3.8,3.6-6.8,5.4-9.3,5.4c-1.2,0-2.6-1-4.4-3c-1.7-2-3.3-4.6-4.6-7.8
			c-1.3-3.2-2-6.5-2-9.9c0-2.5,0.2-4.6,0.7-6.2s1.4-3.4,2.8-5.1C1536.8,911.3,1539,909,1542,906.1z M1580,897.4
			c-13.7,6.3-23.5,11.6-29.4,16c-5.8,4.4-8.8,8.9-8.8,13.6c0,1.7,0.3,3.1,0.9,4.2c0.6,1.1,1.4,1.6,2.4,1.6c0.6,0,1.6-0.4,3.1-1.1
			c5.5-3.3,10.6-7.5,15.2-12.8C1568,913.6,1573.5,906.4,1580,897.4z"/>
	</g>
	<g id="UNI">
		<polygon fill="#FFFFFF" points="695,559 383,559 383,0 151,0 151,799 315,799 383,799 901,799 901,647 901,559 901,293 695,293 		
			"/>
		<polygon fill="#FFFFFF" points="1213,559 1159,559 1159,239 1159,0 957,0 641,0 437,0 437,239 437,505 641,505 641,239 957,239 
			957,559 957,799 1159,799 1213,799 1443,799 1443,559 1443,293 1213,293 		"/>
		<rect x="1213" fill="#FFFFFF" width="230" height="239"/>
	</g>
</g>
</svg>
